<svg xmlns="http://www.w3.org/2000/svg" width="90" height="20" role="img" aria-label="GitLab">
  <title>GitLab</title>
  <linearGradient id="s" x2="0" y2="100%">
    <stop offset="0" stop-color="#bbb" stop-opacity=".1"/>
    <stop offset="1" stop-opacity=".1"/>
  </linearGradient>
  <clipPath id="r">
    <rect width="90" height="20" rx="3" fill="#fff"/>
  </clipPath>
  <g clip-path="url(#r)">
    <rect width="0" height="20" fill="#555"/>
    <rect x="0" width="90" height="20" fill="#FC6D26"/>
    <rect width="90" height="20" fill="url(#s)"/>
  </g>
  <g fill="#fff" text-anchor="middle" font-family="Verdana,Geneva,DejaVu Sans,sans-serif" text-rendering="geometricPrecision" font-size="110">
    <!-- GitLab Logo -->
    <svg x="5" y="3" width="14" height="14" viewBox="0 0 16 16" xmlns="http://www.w3.org/2000/svg" fill="none">
      <path fill="#FC6D26" d="M14.975 8.904L14.19 6.55l-1.552-4.67a.268.268 0 00-.255-.18.268.268 0 00-.254.18l-1.552 4.667H5.422L3.87 1.879a.267.267 0 00-.254-.179.267.267 0 00-.254.18l-1.55 4.667-.784 2.357a.515.515 0 00.193.583l6.78 4.812 6.778-4.812a.516.516 0 00.196-.583z"/>
      <path fill="#E24329" d="M8 14.296l2.578-7.75H5.423L8 14.296z"/>
      <path fill="#FC6D26" d="M8 14.296l-2.579-7.75H1.813L8 14.296z"/>
      <path fill="#FCA326" d="M1.81 6.549l-.784 2.354a.515.515 0 00.193.583L8 14.3 1.81 6.55z"/>
      <path fill="#E24329" d="M1.812 6.549h3.612L3.87 1.882a.268.268 0 00-.254-.18.268.268 0 00-.255.18L1.812 6.549z"/>
      <path fill="#FC6D26" d="M8 14.296l2.578-7.75h3.614L8 14.296z"/>
      <path fill="#FCA326" d="M14.19 6.549l.783 2.354a.514.514 0 01-.193.583L8 14.296l6.188-7.747h.001z"/>
      <path fill="#E24329" d="M14.19 6.549H10.58l1.551-4.667a.267.267 0 01.255-.18c.115 0 .217.073.254.18l1.552 4.667z"/>
    </svg>
    <!-- "GitLab" Text -->
    <text x="60" y="14" fill="#fff" font-size="10">GitLab</text>
  </g>
</svg>
